<svg xmlns="http://www.w3.org/2000/svg" xmlns:xlink="http://www.w3.org/1999/xlink" width="118" height="40" viewBox="0 0 118 40">
    <defs>
        <path id="prefix__a" d="M0 0.039L116.888 0.039 116.888 39.072 0 39.072z"/>
    </defs>
    <g fill="none" fill-rule="evenodd">
        <mask id="prefix__b" fill="#fff">
            <use xlink:href="#prefix__a"/>
        </mask>
        <path fill="#A9AAA9" d="M107.579 0H9.314c-.359 0-.712 0-1.07.002-.299.002-.596.008-.897.013C6.696.03 6.039.07 5.389.187c-.653.115-1.261.31-1.857.612-.584.3-1.118.689-1.58 1.152-.468.463-.855.999-1.152 1.583C.496 4.13.304 4.74.19 5.393.071 6.04.03 6.695.014 7.348c-.01.3-.01.601-.015.9v22.579c.005.303.006.597.015.9.016.654.057 1.308.174 1.955.115.655.307 1.268.611 1.86.297.582.684 1.118 1.152 1.577.462.467.996.855 1.58 1.152.596.305 1.204.498 1.857.616.65.117 1.307.155 1.958.172.301.007.598.011.897.011.358.002.711.002 1.07.002h98.265c.353 0 .708 0 1.059-.002.299 0 .604-.004.901-.01.655-.018 1.311-.056 1.954-.173.654-.118 1.262-.311 1.864-.616.583-.297 1.117-.685 1.58-1.152.464-.459.852-.995 1.153-1.576.3-.593.495-1.206.605-1.86.12-.648.158-1.302.182-1.957.003-.302.003-.596.003-.9.008-.355.008-.707.008-1.068V9.315c0-.358 0-.712-.008-1.067 0-.299 0-.6-.003-.9-.024-.653-.061-1.307-.182-1.955-.11-.654-.305-1.264-.605-1.859-.301-.584-.689-1.12-1.153-1.583-.463-.463-.997-.852-1.58-1.152-.602-.302-1.21-.497-1.864-.612-.643-.117-1.3-.157-1.954-.172-.297-.005-.602-.011-.901-.013-.35-.002-.706-.002-1.059-.002" mask="url(#prefix__b)"/>
        <path fill="#000" d="M8.25 38.217c-.299 0-.589-.004-.884-.01-.547-.015-1.195-.046-1.827-.16-.595-.107-1.125-.283-1.617-.535-.51-.258-.968-.592-1.365-.992-.404-.398-.737-.853-.997-1.365-.253-.493-.426-1.023-.53-1.618-.12-.658-.15-1.324-.163-1.832-.006-.206-.014-.892-.014-.892V8.248s.009-.675.014-.873c.013-.512.043-1.178.162-1.829.104-.6.277-1.129.531-1.623.259-.513.592-.971.991-1.366.404-.404.864-.74 1.37-.999.502-.255 1.03-.429 1.615-.531C6.194.909 6.86.879 7.368.867l.881-.012h100.384l.892.012c.5.012 1.168.042 1.816.159.588.103 1.121.278 1.632.535.501.257.96.592 1.359.992.401.397.734.858 1 1.372.252.499.423 1.028.523 1.61.113.617.148 1.25.17 1.844.002.276.002.574.002.87.01.365.01.714.01 1.066v20.443c0 .355 0 .702-.01 1.05 0 .318 0 .609-.004.909-.02.575-.055 1.207-.167 1.81-.101.599-.272 1.128-.527 1.631-.263.508-.598.966-.992 1.354-.404.408-.862.741-1.366.998-.508.258-1.025.429-1.63.537-.625.114-1.273.145-1.826.16-.285.006-.586.01-.877.01l-1.059.002-99.33-.002"/>
        <path fill="#FFFFFE" d="M24.194 19.83c-.024-2.687 2.2-3.995 2.303-4.057-1.26-1.836-3.214-2.087-3.9-2.107-1.64-.172-3.23.982-4.066.982-.852 0-2.138-.965-3.524-.936-1.784.028-3.454 1.061-4.37 2.665-1.889 3.27-.48 8.077 1.33 10.72.905 1.296 1.963 2.742 3.348 2.69 1.355-.055 1.861-.864 3.496-.864 1.62 0 2.095.865 3.508.832 1.453-.023 2.37-1.3 3.244-2.608 1.046-1.484 1.466-2.946 1.483-3.02-.035-.012-2.824-1.075-2.852-4.297M21.526 11.928c.728-.912 1.227-2.151 1.089-3.41-1.055.047-2.374.73-3.134 1.621-.672.786-1.271 2.073-1.117 3.283 1.185.09 2.402-.598 3.162-1.494M37.176 24.997h3.665l-1.807-5.32h-.05l-1.808 5.32zm4.145 1.513h-4.624l-1.11 3.279h-1.959l4.38-12.13h2.035l4.379 12.13H42.43l-1.11-3.279zM52.015 25.368c0-1.791-.926-2.968-2.338-2.968-1.387 0-2.32 1.201-2.32 2.968 0 1.781.933 2.975 2.32 2.975 1.412 0 2.338-1.17 2.338-2.975zm1.865 0c0 2.747-1.47 4.513-3.691 4.513-1.26 0-2.26-.563-2.782-1.547h-.042v4.38H45.55v-11.77h1.757v1.472h.034c.505-.949 1.581-1.563 2.816-1.563 2.244 0 3.724 1.774 3.724 4.515zM61.747 25.368c0-1.791-.925-2.968-2.336-2.968-1.387 0-2.32 1.201-2.32 2.968 0 1.781.933 2.975 2.32 2.975 1.411 0 2.336-1.17 2.336-2.975zm1.866 0c0 2.747-1.47 4.513-3.69 4.513-1.26 0-2.26-.563-2.782-1.547h-.042v4.38h-1.816v-11.77h1.757v1.472h.034c.505-.949 1.58-1.563 2.816-1.563 2.244 0 3.723 1.774 3.723 4.515zM70.047 26.409c.134 1.203 1.303 1.992 2.9 1.992 1.53 0 2.631-.789 2.631-1.874 0-.942-.664-1.505-2.236-1.891l-1.573-.38c-2.227-.537-3.261-1.579-3.261-3.27 0-2.092 1.825-3.53 4.414-3.53 2.563 0 4.32 1.438 4.38 3.53h-1.833c-.11-1.21-1.111-1.94-2.572-1.94-1.464 0-2.464.74-2.464 1.815 0 .857.639 1.362 2.203 1.749l1.336.327c2.49.59 3.523 1.589 3.523 3.363 0 2.27-1.808 3.69-4.682 3.69-2.69 0-4.507-1.387-4.624-3.581h1.858M81.412 18.852v2.093h1.683v1.437h-1.683v4.876c0 .758.337 1.11 1.077 1.11.185 0 .48-.025.597-.042v1.43c-.202.05-.605.083-1.008.083-1.79 0-2.49-.673-2.49-2.387v-5.07h-1.285v-1.437h1.286v-2.093h1.823M90.608 25.368c0-1.91-.874-3.036-2.345-3.036s-2.345 1.135-2.345 3.036c0 1.916.874 3.033 2.345 3.033 1.47 0 2.345-1.117 2.345-3.033zm-6.54 0c0-2.783 1.64-4.532 4.195-4.532 2.564 0 4.195 1.749 4.195 4.532 0 2.79-1.622 4.53-4.195 4.53-2.572 0-4.195-1.74-4.195-4.53zM93.955 20.945h1.731v1.505h.042c.278-1 1.085-1.597 2.127-1.597.26 0 .479.034.622.067v1.698c-.143-.059-.463-.11-.815-.11-1.169 0-1.892.792-1.892 2.035v5.246h-1.815v-8.844M100.71 24.552h4.421c-.042-1.354-.907-2.245-2.168-2.245-1.253 0-2.16.909-2.253 2.245zm6.136 2.64c-.244 1.605-1.807 2.706-3.807 2.706-2.573 0-4.17-1.723-4.17-4.488 0-2.775 1.606-4.574 4.094-4.574 2.447 0 3.985 1.681 3.985 4.363v.622h-6.247v.11c0 1.512.95 2.504 2.38 2.504 1.008 0 1.8-.479 2.042-1.244h1.723zM35.749 13.533h1.099c1.219 0 1.921-.76 1.921-2.097 0-1.316-.714-2.084-1.921-2.084h-1.099v4.18zm1.2-5.005c1.728 0 2.742 1.062 2.742 2.897 0 1.861-1.006 2.932-2.743 2.932h-2.105V8.528h2.105zM41.598 11.752h2.221c-.02-.69-.44-1.14-1.082-1.14-.642 0-1.09.453-1.139 1.14zm3.054 1.417c-.198.789-.901 1.273-1.906 1.273-1.26 0-2.032-.864-2.032-2.271 0-1.406.787-2.297 2.028-2.297 1.224 0 1.962.836 1.962 2.217v.303h-3.106v.048c.028.771.477 1.26 1.171 1.26.526 0 .885-.19 1.046-.533h.837zM47.476 9.874c.99 0 1.637.46 1.722 1.235h-.833c-.08-.323-.396-.528-.889-.528-.484 0-.851.23-.851.572 0 .264.221.429.698.538l.73.17c.838.194 1.23.553 1.23 1.2 0 .827-.772 1.381-1.822 1.381-1.046 0-1.73-.473-1.806-1.252h.87c.107.339.43.549.955.549.541 0 .926-.243.926-.594 0-.263-.206-.432-.646-.537l-.768-.178c-.836-.198-1.223-.574-1.223-1.228 0-.78.714-1.328 1.707-1.328M53.332 11.396c-.101-.428-.457-.747-1.039-.747-.727 0-1.171.557-1.171 1.495 0 .953.448 1.522 1.171 1.522.55 0 .925-.25 1.04-.723h.843c-.113.885-.792 1.499-1.878 1.499-1.28 0-2.064-.864-2.064-2.298 0-1.41.78-2.27 2.059-2.27 1.103 0 1.77.641 1.883 1.522h-.844M56.484 9.223l1.013-1.39h1.018l-1.135 1.39h-.896zm1.38 3.514v-.368l-1.073.069c-.605.04-.88.247-.88.635 0 .395.343.626.815.626.654 0 1.139-.416 1.139-.962zm-2.826.376c0-.792.589-1.249 1.636-1.313l1.19-.069v-.38c0-.464-.306-.726-.9-.726-.484 0-.82.177-.916.488h-.84c.088-.755.799-1.24 1.796-1.24 1.103 0 1.725.55 1.725 1.478v3.006h-.835v-.618h-.07c-.261.44-.742.69-1.32.69-.848 0-1.466-.513-1.466-1.316zM60.089 9.958h.835v.674h.065c.125-.431.613-.747 1.187-.747.13 0 .295.012.388.036v.857c-.072-.024-.331-.052-.484-.052-.659 0-1.124.415-1.124 1.034v2.597h-.867V9.958M66.444 12.103c0-.877-.453-1.438-1.193-1.438-.746 0-1.166.561-1.166 1.438 0 .877.42 1.437 1.166 1.437.745 0 1.193-.556 1.193-1.437zm-3.083 2.694h.89c.072.319.44.525 1.026.525.723 0 1.15-.344 1.15-.925v-.844h-.064c-.267.477-.751.739-1.358.739-1.122 0-1.818-.868-1.818-2.185 0-1.342.704-2.222 1.827-2.222.606 0 1.134.3 1.381.776h.07v-.703h.83v4.435c0 1.006-.788 1.644-2.031 1.644-1.099 0-1.81-.492-1.903-1.24zM71.256 12.737v-.368l-1.075.069c-.605.04-.88.247-.88.635 0 .395.343.626.816.626.654 0 1.139-.416 1.139-.962zm-2.828.376c0-.792.59-1.249 1.636-1.313l1.192-.069v-.38c0-.464-.308-.726-.9-.726-.485 0-.821.177-.918.488h-.84c.089-.755.799-1.24 1.797-1.24 1.103 0 1.724.55 1.724 1.478v3.006h-.835v-.618h-.068c-.263.44-.744.69-1.322.69-.848 0-1.466-.513-1.466-1.316zM73.519 14.357L74.387 14.357 74.387 8.241 73.519 8.241zM78.85 12.155c0-.953-.429-1.51-1.18-1.51-.755 0-1.18.557-1.18 1.51 0 .961.425 1.515 1.18 1.515.751 0 1.18-.557 1.18-1.515zm-3.256 0c0-1.417.792-2.281 2.075-2.281 1.282 0 2.073.864 2.073 2.281 0 1.426-.787 2.287-2.073 2.287-1.287 0-2.075-.86-2.075-2.287zM83.96 11.752h2.221c-.02-.69-.44-1.14-1.082-1.14-.643 0-1.091.453-1.139 1.14zm3.053 1.417c-.197.789-.9 1.273-1.906 1.273-1.26 0-2.032-.864-2.032-2.271 0-1.406.788-2.297 2.028-2.297 1.225 0 1.962.836 1.962 2.217v.303H83.96v.048c.028.771.477 1.26 1.171 1.26.526 0 .885-.19 1.046-.533h.836zM88.232 9.958h.835v.699h.065c.213-.489.65-.783 1.312-.783.982 0 1.523.589 1.523 1.636v2.847h-.869v-2.63c0-.707-.306-1.058-.948-1.058-.643 0-1.051.428-1.051 1.114v2.574h-.867V9.958M96.361 11.752h2.222c-.02-.69-.44-1.14-1.083-1.14-.641 0-1.09.453-1.139 1.14zm3.054 1.417c-.197.789-.9 1.273-1.906 1.273-1.26 0-2.032-.864-2.032-2.271 0-1.406.788-2.297 2.028-2.297 1.224 0 1.963.836 1.963 2.217v.303H96.36v.048c.029.771.477 1.26 1.172 1.26.525 0 .885-.19 1.046-.533h.836zM100.673 14.357L101.541 14.357 101.541 8.241 100.673 8.241z"/>
    </g>
</svg>
