<svg xmlns="http://www.w3.org/2000/svg" width="31" height="30" viewBox="0 0 31 30">
    <path fill="#681CAD" fill-rule="evenodd" d="M6.748 1.844C7.352.2 9.19-.48 10.724.36L15.6 2.915h11.484c1.662 0 3.009 1.352 3.009 3.007v21.071c0 1.66-1.352 3.007-3.01 3.007H3.01C1.347 30 0 28.65 0 26.993V7.43c0-2.493 2.016-4.515 4.507-4.515h1.846l.395-1.071zm14.31 14.614c-1.657 0-3.002 1.346-3.002 3.01 0 1.658 1.348 3.009 3.003 3.009h6.025v-6.02H21.06zM9.512 3.122L7.34 8.934h13.264L9.511 3.122zM3.01 26.993l24.076-.002-.001-1.505h-6.025c-3.32 0-6.012-2.702-6.012-6.019 0-3.324 2.69-6.019 6.012-6.019h6.025v-1.504H4.508c-.525 0-1.03-.09-1.498-.256v15.305zM27.085 5.922l-5.74.002 5.74 3.007V5.92zm-22.578.003c-.827 0-1.498.672-1.498 1.505 0 .707.49 1.302 1.145 1.462l1.092-2.967h-.74zm16.559 15.047c-.831 0-1.505-.674-1.505-1.505 0-.83.674-1.505 1.505-1.505.83 0 1.504.674 1.504 1.505 0 .831-.673 1.505-1.504 1.505z"/>
</svg>
