<svg xmlns="http://www.w3.org/2000/svg" width="29" height="29" viewBox="0 0 29 29">
    <path fill="#FFF" fill-rule="evenodd" d="M18.125 0c3.203 0 5.8 2.556 5.8 5.709 0 1.2-.218 2.864-.724 4.466 1.752.64 3.114 1.671 4.094 3.04C28.52 14.926 29 16.914 29 18.847c0 .527-.287 1.013-.749 1.269-.565.312-1.543.755-2.856 1.193-.964.322-1.96.587-2.983.782.518 1.134.788 2.289.788 3.28 0 .56-.322 1.07-.828 1.31-.638.302-1.74.738-3.2 1.17C16.743 28.568 14.184 29 11.6 29s-5.144-.431-7.571-1.149c-1.46-.431-2.563-.867-3.2-1.17-.507-.24-.829-.75-.829-1.31 0-1.758.834-4.005 2.383-5.76.97-1.101 2.174-1.98 3.605-2.601-.64-1.923-.913-3.963-.913-5.411 0-3.604 2.921-6.525 6.525-6.525.256 0 .508.015.756.044C12.656 2.243 15.124 0 18.125 0zm-.915 17.014c1.35.587 2.496 1.405 3.437 2.421 1.32-.163 2.605-.466 3.83-.875.579-.193 1.106-.398 1.574-.602-.12-1.086-.469-2.155-1.114-3.056-.668-.932-1.625-1.644-2.94-2.08-.905 1.402-2.169 2.401-3.872 2.401-.143 0-.283-.007-.42-.02-.13.6-.295 1.211-.495 1.81zm.915-4.69c1.369 0 2.9-3.33 2.9-6.615 0-1.541-1.288-2.81-2.9-2.81-1.612 0-2.9 1.269-2.9 2.81 0 .157.003.314.01.47 1.743 1.172 2.89 3.162 2.89 5.42 0 .227-.007.47-.02.724h.02zM4.558 21.527c-.796.903-1.32 1.991-1.54 2.925.55.21 1.164.42 1.833.618 2.178.644 4.468 1.03 6.749 1.03 2.28 0 4.57-.386 6.75-1.03.667-.198 1.28-.407 1.83-.617-.221-.926-.746-2.013-1.54-2.914-.697-.793-1.57-1.433-2.635-1.89-1.022 1.643-2.458 2.822-4.405 2.822-1.948 0-3.386-1.18-4.408-2.826-1.065.455-1.938 1.093-2.634 1.882zm7.042-1.955c1.804 0 3.625-4.021 3.625-7.974 0-2.002-1.623-3.625-3.625-3.625s-3.625 1.623-3.625 3.625c0 3.953 1.82 7.974 3.625 7.974z"/>
</svg>
