<svg xmlns="http://www.w3.org/2000/svg" xmlns:xlink="http://www.w3.org/1999/xlink" width="132" height="40" viewBox="0 0 132 40">
    <defs>
        <linearGradient id="prefix__b" x1="61.295%" x2="25.961%" y1="4.43%" y2="-63.301%">
            <stop offset="0%" stop-color="#00A0FF"/>
            <stop offset="100%" stop-color="#00E2FF"/>
        </linearGradient>
        <linearGradient id="prefix__e" x1="107.599%" x2="-130.466%" y1="49.125%" y2="49.125%">
            <stop offset="0%" stop-color="#FFDE00"/>
            <stop offset="100%" stop-color="#FF9C00"/>
        </linearGradient>
        <linearGradient id="prefix__h" x1="86.731%" x2="-50.475%" y1="30.669%" y2="-75.716%">
            <stop offset="0%" stop-color="#FF3A44"/>
            <stop offset="100%" stop-color="#C21161"/>
        </linearGradient>
        <linearGradient id="prefix__k" x1="-19.326%" x2="41.846%" y1="-12.414%" y2="-59.767%">
            <stop offset="0%" stop-color="#31A06F"/>
            <stop offset="100%" stop-color="#00EF74"/>
        </linearGradient>
        <linearGradient id="prefix__n" x1="726.04%" x2="-1693.66%" y1="-375.06%" y2="-375.06%">
            <stop offset="0%" stop-color="#CCB300"/>
            <stop offset="100%" stop-color="#CC7C00"/>
        </linearGradient>
        <linearGradient id="prefix__q" x1="86.252%" x2="-50.14%" y1="30.557%" y2="-40.802%">
            <stop offset="0%" stop-color="#CC2D36"/>
            <stop offset="100%" stop-color="#9C0D4D"/>
        </linearGradient>
        <linearGradient id="prefix__t" x1="531.136%" x2="-167.407%" y1="-1432.535%" y2="-2515.277%">
            <stop offset="0%" stop-color="#008BDE"/>
            <stop offset="100%" stop-color="#00C6DE"/>
        </linearGradient>
        <linearGradient id="prefix__w" x1="1485.5%" x2="-790.33%" y1="-963.14%" y2="-3238.97%">
            <stop offset="0%" stop-color="#DE333B"/>
            <stop offset="100%" stop-color="#AA0D56"/>
        </linearGradient>
        <linearGradient id="prefix__z" x1="112.801%" x2="-288.21%" y1="-.038%" y2="-.038%">
            <stop offset="0%" stop-color="#DEC300"/>
            <stop offset="100%" stop-color="#DE8900"/>
        </linearGradient>
        <linearGradient id="prefix__C" x1="112.801%" x2="-288.21%" y1="100.009%" y2="100.009%">
            <stop offset="0%" stop-color="#FFE73F"/>
            <stop offset="100%" stop-color="#FFB43F"/>
        </linearGradient>
        <linearGradient id="prefix__F" x1="1182.78%" x2="-495.47%" y1="76.583%" y2="-956.823%">
            <stop offset="0%" stop-color="#3FB8FF"/>
            <stop offset="100%" stop-color="#3FE8FF"/>
        </linearGradient>
        <linearGradient id="prefix__I" x1="-18.804%" x2="42.1%" y1="14.475%" y2="-17.39%">
            <stop offset="0%" stop-color="#64B894"/>
            <stop offset="100%" stop-color="#3FF497"/>
        </linearGradient>
        <path id="prefix__a" d="M1.464 24.625l-.072-.069c-.282-.299-.45-.762-.45-1.363v.141V1.88v.147c0-.65.196-1.14.52-1.433L13.48 12.609 1.464 24.625zM.943 1.879c0-.054.002-.106.004-.157-.002.05-.004.103-.004.157z"/>
        <path id="prefix__d" d="M4.876 9l.09-.053 4.746-2.696c.453-.257.755-.569.905-.9-.15.331-.452.643-.905.9L4.967 8.949l-.091.051zm0-.143L.872 4.85 4.877.845l4.835 2.747c.615.349.96.799 1.017 1.258v.002c-.058.458-.402.908-1.017 1.257L4.877 8.857z"/>
        <path id="prefix__g" d="M1.35 12.474c-.336 0-.627-.11-.856-.315.229.206.521.315.857.315.03 0 .06 0 .09-.002l-.09.002zm.001-.142c-.336 0-.628-.109-.857-.315L12.509 0l4.006 4.006-14.078 8c-.389.221-.758.325-1.086.325z"/>
        <path id="prefix__j" d="M12.51 12.61L.492.593c.229-.206.52-.316.856-.316.329 0 .698.105 1.088.327l14.078 7.999-4.006 4.005zm4.095-4.096L2.437.464C2.047.24 1.677.137 1.35.137h-.004.005c.329 0 .697.104 1.087.326l14.168 8.05z"/>
        <path id="prefix__m" d="M.996 1.24l.091-.052-.09.052z"/>
        <path id="prefix__p" d="M1.351 8.595c-.336 0-.628-.11-.857-.316L.49 8.278l-.063-.061-.006-.006.072-.073c.229.207.521.316.857.315.328 0 .697-.103 1.086-.324l14.078-8 .09.09-.091.053L2.437 8.269c-.355.2-.692.306-.997.323l-.089.003z"/>
        <path id="prefix__s" d="M1.392 2.39c-.282-.298-.45-.762-.45-1.363v-.14c0 .6.168 1.063.45 1.362l.072.069-.072.072z"/>
        <path id="prefix__v" d="M1.392 1.421L1.392 1.42 1.464 1.348z"/>
        <path id="prefix__y" d="M.117 4.098l-.09-.09L4.863 1.26c.615-.35.96-.8 1.016-1.257 0 .168-.037.336-.111.5-.15.33-.452.641-.905.898L.117 4.098z"/>
        <path id="prefix__B" d="M5.88 4.85c-.058-.46-.402-.91-1.017-1.258L.027.845l.09-.09L4.863 3.45c.678.385 1.016.892 1.016 1.4z"/>
        <path id="prefix__E" d="M.943 4.21v-.354c0-.127.007-.252.015-.372.004-.003.004-.005.004-.007v-.019c.112-1.233.736-2.196 1.72-2.84l.275.172C1.698 1.489.943 2.66.943 4.21z"/>
        <path id="prefix__H" d="M16.515 8.604L2.437.605C2.047.383 1.677.278 1.35.278c-.335 0-.627.11-.856.316L.422.522C.444.499.467.476.49.455L.494.452C.72.247 1.01.139 1.34.137h.008c.329 0 .698.104 1.088.327l14.168 8.05-.09.09z"/>
    </defs>
    <g fill="none" fill-rule="evenodd">
        <path fill="#FFF" d="M.907 34.854c0 2.666 2.183 4.85 4.85 4.85H126.99c2.668 0 4.85-2.184 4.85-4.85V5.757c0-2.667-2.182-4.85-4.85-4.85H5.757C3.09.907.907 3.09.907 5.757v29.096z"/>
        <path fill="#000" d="M126.99 39.702H5.757c-2.667 0-4.85-2.182-4.85-4.85V5.758c0-2.667 2.183-4.85 4.85-4.85H126.99c2.668 0 4.85 2.183 4.85 4.85v29.096c0 2.667-2.182 4.85-4.85 4.85z"/>
        <path fill="#A6A6A6" d="M126.99.908H5.757C3.09.908.907 3.091.907 5.757v29.097c0 2.666 2.183 4.85 4.85 4.85H126.99c2.668 0 4.85-2.184 4.85-4.85V5.757c0-2.666-2.182-4.849-4.85-4.849zm0 .775c2.247 0 4.074 1.829 4.074 4.074v29.097c0 2.245-1.827 4.073-4.074 4.073H5.757c-2.246 0-4.074-1.828-4.074-4.073V5.757c0-2.245 1.828-4.074 4.074-4.074H126.99z"/>
        <path fill="#FFF" d="M104.621 30.005h1.81V17.879h-1.81v12.126zm16.301-7.758l-2.075 5.256h-.062l-2.153-5.256h-1.95l3.23 7.347-1.841 4.086h1.888l4.975-11.433h-2.012zm-10.263 6.38c-.594 0-1.42-.296-1.42-1.03 0-.936 1.03-1.294 1.918-1.294.797 0 1.17.171 1.654.405-.14 1.123-1.108 1.918-2.152 1.918zm.218-6.645c-1.31 0-2.667.577-3.229 1.856l1.606.671c.344-.67.983-.89 1.654-.89.936 0 1.887.562 1.903 1.56v.126c-.328-.188-1.03-.469-1.887-.469-1.732 0-3.495.952-3.495 2.73 0 1.622 1.42 2.667 3.01 2.667 1.218 0 1.888-.546 2.31-1.185h.062v.936h1.747v-4.648c0-2.154-1.606-3.354-3.681-3.354zm-11.184 1.74h-2.575v-4.155h2.575c1.352 0 2.12 1.12 2.12 2.078 0 .94-.768 2.078-2.12 2.078zm-.047-5.843H95.31v12.126h1.808V25.41h2.528c2.006 0 3.977-1.452 3.977-3.765 0-2.314-1.971-3.766-3.977-3.766zM75.999 28.63c-1.25 0-2.297-1.047-2.297-2.485 0-1.452 1.047-2.514 2.297-2.514 1.234 0 2.203 1.062 2.203 2.514 0 1.438-.969 2.485-2.203 2.485zm2.078-5.703h-.062c-.406-.485-1.188-.922-2.173-.922-2.061 0-3.953 1.813-3.953 4.14 0 2.314 1.892 4.11 3.953 4.11.985 0 1.767-.438 2.173-.937h.062v.593c0 1.578-.844 2.422-2.204 2.422-1.108 0-1.796-.797-2.077-1.468l-1.578.655c.453 1.094 1.656 2.439 3.655 2.439 2.126 0 3.923-1.25 3.923-4.298v-7.406h-1.719v.672zm2.969 7.079h1.812V17.879h-1.812v12.126zm4.484-4.001c-.047-1.594 1.235-2.406 2.156-2.406.72 0 1.33.36 1.532.875l-3.688 1.53zm5.626-1.374c-.344-.923-1.391-2.626-3.532-2.626-2.125 0-3.89 1.672-3.89 4.125 0 2.313 1.749 4.125 4.093 4.125 1.891 0 2.985-1.156 3.438-1.828l-1.406-.937c-.468.687-1.11 1.14-2.032 1.14-.922 0-1.578-.422-2-1.25l5.516-2.281-.187-.468zm-43.944-1.36v1.75H51.4c-.125.984-.453 1.702-.954 2.203-.609.609-1.562 1.281-3.234 1.281-2.578 0-4.593-2.078-4.593-4.656s2.015-4.657 4.593-4.657c1.39 0 2.406.547 3.157 1.25l1.234-1.234c-1.047-1-2.438-1.765-4.391-1.765-3.531 0-6.5 2.874-6.5 6.406 0 3.531 2.969 6.406 6.5 6.406 1.907 0 3.344-.625 4.47-1.796 1.155-1.157 1.515-2.782 1.515-4.094 0-.407-.032-.782-.094-1.094h-5.891zm10.745 5.36c-1.25 0-2.328-1.032-2.328-2.501 0-1.484 1.078-2.5 2.328-2.5 1.25 0 2.328 1.016 2.328 2.5 0 1.47-1.078 2.5-2.328 2.5zm0-6.626c-2.281 0-4.14 1.734-4.14 4.125 0 2.375 1.859 4.125 4.14 4.125 2.281 0 4.14-1.75 4.14-4.125 0-2.39-1.859-4.125-4.14-4.125zm9.032 6.625c-1.249 0-2.327-1.03-2.327-2.5 0-1.484 1.078-2.5 2.327-2.5 1.25 0 2.33 1.016 2.33 2.5 0 1.47-1.08 2.5-2.33 2.5zm0-6.625c-2.28 0-4.14 1.734-4.14 4.125 0 2.375 1.86 4.125 4.14 4.125 2.283 0 4.142-1.75 4.142-4.125 0-2.39-1.86-4.125-4.142-4.125z"/>
        <g transform="translate(9.636 7.697)">
            <mask id="prefix__c" fill="#fff">
                <use xlink:href="#prefix__a"/>
            </mask>
            <path fill="url(#prefix__b)" d="M1.464 24.625l-.072-.069c-.282-.299-.45-.762-.45-1.363v.141V1.88v.147c0-.65.196-1.14.52-1.433L13.48 12.609 1.464 24.625zM.943 1.879c0-.054.002-.106.004-.157-.002.05-.004.103-.004.157z" mask="url(#prefix__c)"/>
        </g>
        <g transform="translate(22.245 15.456)">
            <mask id="prefix__f" fill="#fff">
                <use xlink:href="#prefix__d"/>
            </mask>
            <path fill="url(#prefix__e)" d="M4.876 9l.09-.053 4.746-2.696c.453-.257.755-.569.905-.9-.15.331-.452.643-.905.9L4.967 8.949l-.091.051zm0-.143L.872 4.85 4.877.845l4.835 2.747c.615.349.96.799 1.017 1.258v.002c-.058.458-.402.908-1.017 1.257L4.877 8.857z" mask="url(#prefix__f)"/>
        </g>
        <g transform="translate(10.606 20.305)">
            <mask id="prefix__i" fill="#fff">
                <use xlink:href="#prefix__g"/>
            </mask>
            <path fill="url(#prefix__h)" d="M1.35 12.474c-.336 0-.627-.11-.856-.315.229.206.521.315.857.315.03 0 .06 0 .09-.002l-.09.002zm.001-.142c-.336 0-.628-.109-.857-.315L12.509 0l4.006 4.006-14.078 8c-.389.221-.758.325-1.086.325z" mask="url(#prefix__i)"/>
        </g>
        <g transform="translate(10.606 7.697)">
            <mask id="prefix__l" fill="#fff">
                <use xlink:href="#prefix__j"/>
            </mask>
            <path fill="url(#prefix__k)" d="M12.51 12.61L.492.593c.229-.206.52-.316.856-.316.329 0 .698.105 1.088.327l14.078 7.999-4.006 4.005zm4.095-4.096L2.437.464C2.047.24 1.677.137 1.35.137h-.004.005c.329 0 .697.104 1.087.326l14.168 8.05z" mask="url(#prefix__l)"/>
        </g>
        <path fill="#000" d="M12.046 32.776c.305-.017.642-.122.997-.323l14.077-7.998-14.077 7.998c-.355.202-.692.307-.997.323z"/>
        <g transform="translate(26.124 23.214)">
            <mask id="prefix__o" fill="#fff">
                <use xlink:href="#prefix__m"/>
            </mask>
            <path fill="url(#prefix__n)" d="M.996 1.24l.091-.052-.09.052z" mask="url(#prefix__o)"/>
        </g>
        <g transform="translate(10.606 24.184)">
            <mask id="prefix__r" fill="#fff">
                <use xlink:href="#prefix__p"/>
            </mask>
            <path fill="url(#prefix__q)" d="M1.351 8.595c-.336 0-.628-.11-.857-.316L.49 8.278l-.063-.061-.006-.006.072-.073c.229.207.521.316.857.315.328 0 .697-.103 1.086-.324l14.078-8 .09.09-.091.053L2.437 8.269c-.355.2-.692.306-.997.323l-.089.003z" mask="url(#prefix__r)"/>
        </g>
        <path fill="#000" d="M11.028 32.394c-.282-.298-.449-.762-.449-1.362v-.001c0 .601.167 1.065.45 1.362v.001z"/>
        <g transform="translate(9.636 30.004)">
            <mask id="prefix__u" fill="#fff">
                <use xlink:href="#prefix__s"/>
            </mask>
            <path fill="url(#prefix__t)" d="M1.392 2.39c-.282-.298-.45-.762-.45-1.363v-.14c0 .6.168 1.063.45 1.362l.072.069-.072.072z" mask="url(#prefix__u)"/>
        </g>
        <g transform="translate(9.636 30.973)">
            <mask id="prefix__x" fill="#fff">
                <use xlink:href="#prefix__v"/>
            </mask>
            <path fill="url(#prefix__w)" d="M1.392 1.421L1.392 1.42 1.464 1.348z" mask="url(#prefix__x)"/>
        </g>
        <path fill="#000" d="M32.862 20.807c.074-.163.111-.331.111-.5h.001c0 .169-.038.336-.112.5z"/>
        <g transform="translate(27.094 20.305)">
            <mask id="prefix__A" fill="#fff">
                <use xlink:href="#prefix__y"/>
            </mask>
            <path fill="url(#prefix__z)" d="M.117 4.098l-.09-.09L4.863 1.26c.615-.35.96-.8 1.016-1.257 0 .168-.037.336-.111.5-.15.33-.452.641-.905.898L.117 4.098z" mask="url(#prefix__A)"/>
        </g>
        <path fill="#404040" d="M32.974 20.306c0-.507-.34-1.015-1.017-1.4L27.21 16.21l4.746 2.696c.678.385 1.017.893 1.017 1.4z"/>
        <g transform="translate(27.094 15.456)">
            <mask id="prefix__D" fill="#fff">
                <use xlink:href="#prefix__B"/>
            </mask>
            <path fill="url(#prefix__C)" d="M5.88 4.85c-.058-.46-.402-.91-1.017-1.258L.027.845l.09-.09L4.863 3.45c.678.385 1.016.892 1.016 1.4z" mask="url(#prefix__D)"/>
        </g>
        <path fill="#404040" d="M10.592 11.23c.155-2.148 1.641-3.388 3.745-3.397-.91.004-1.704.239-2.328.68l-.008.006c-.064.046-.128.094-.189.145-.698.581-1.14 1.451-1.22 2.566z"/>
        <g transform="translate(9.636 7.697)">
            <mask id="prefix__G" fill="#fff">
                <use xlink:href="#prefix__E"/>
            </mask>
            <path fill="url(#prefix__F)" d="M.943 4.21v-.354c0-.127.007-.252.015-.372.004-.003.004-.005.004-.007v-.019c.112-1.233.736-2.196 1.72-2.84l.275.172C1.698 1.489.943 2.66.943 4.21z" mask="url(#prefix__G)"/>
        </g>
        <g transform="translate(10.606 7.697)">
            <mask id="prefix__J" fill="#fff">
                <use xlink:href="#prefix__H"/>
            </mask>
            <path fill="url(#prefix__I)" d="M16.515 8.604L2.437.605C2.047.383 1.677.278 1.35.278c-.335 0-.627.11-.856.316L.422.522C.444.499.467.476.49.455L.494.452C.72.247 1.01.139 1.34.137h.008c.329 0 .698.104 1.088.327l14.168 8.05-.09.09z" mask="url(#prefix__J)"/>
        </g>
        <path fill="#FFF" d="M41.69 12.801h1.033c.672 0 1.204-.192 1.597-.577.394-.385.59-.924.59-1.618 0-.687-.196-1.225-.59-1.613-.393-.387-.925-.58-1.597-.58H41.69V12.8zm-.746.715v-5.82h1.78c.894 0 1.608.27 2.146.81.535.539.804 1.239.804 2.1 0 .862-.269 1.563-.804 2.1-.538.541-1.252.81-2.147.81h-1.78z"/>
        <path fill="#FFF" d="M41.69 12.801v.097h1.033c.689 0 1.252-.2 1.665-.605.415-.406.618-.976.618-1.687 0-.705-.203-1.273-.617-1.682h-.001c-.413-.407-.975-.61-1.665-.609h-1.13v4.583h.097v-.097h.097V8.509h.936c.654.001 1.155.187 1.529.553.371.368.56.874.56 1.544 0 .676-.189 1.185-.56 1.548-.373.365-.875.549-1.529.55H41.69v.097h.097-.097zm-.746.715h.097V7.794h1.682c.875 0 1.56.261 2.078.78.517.521.775 1.19.776 2.032-.001.842-.26 1.512-.776 2.033-.518.519-1.203.78-2.078.78h-1.78v.097h.098-.097v.097h1.78c.912 0 1.658-.278 2.215-.837.554-.558.833-1.288.832-2.17 0-.88-.278-1.612-.832-2.168-.557-.56-1.303-.838-2.216-.838h-1.876v6.013h.097v-.097zM46.723 13.516L47.47 13.516 47.47 7.697 46.723 7.697z"/>
        <path fill="#FFF" d="M46.723 13.516L46.82 13.516 46.82 7.794 47.373 7.794 47.373 13.419 46.723 13.419 46.723 13.516 46.82 13.516 46.723 13.516 46.723 13.613 47.567 13.613 47.567 7.6 46.626 7.6 46.626 13.613 46.723 13.613zM50.445 13.646c-.423 0-.837-.138-1.24-.414-.404-.277-.668-.664-.792-1.162l.682-.277c.082.32.248.59.5.81.252.218.535.328.85.328.324 0 .603-.085.833-.256.23-.17.345-.403.345-.695 0-.324-.116-.576-.345-.751-.23-.177-.595-.34-1.093-.493-.515-.162-.905-.372-1.171-.63-.265-.256-.399-.586-.399-.987 0-.417.166-.78.497-1.089.33-.308.761-.463 1.292-.463.493 0 .894.124 1.202.37.309.246.51.516.602.809l-.682.283c-.05-.183-.17-.354-.362-.511-.192-.157-.44-.236-.745-.236-.287 0-.531.08-.734.24-.204.16-.305.359-.305.597 0 .217.094.4.28.55.187.148.463.283.825.4.287.093.527.182.72.27.192.086.387.201.584.345.199.143.347.323.447.536.1.214.151.462.151.744 0 .281-.058.533-.174.756-.117.223-.272.398-.465.528-.192.13-.399.229-.62.297-.224.068-.45.1-.683.1z"/>
        <path fill="#FFF" d="M50.445 13.743v-.194c-.402 0-.794-.13-1.185-.397-.385-.265-.633-.627-.753-1.106l-.094.024.036.089.683-.276-.037-.09-.094.025c.087.337.264.626.53.857.268.233.576.354.914.353.34 0 .643-.091.89-.275.254-.185.387-.455.385-.773 0-.347-.128-.636-.383-.829-.247-.188-.62-.353-1.124-.507-.506-.16-.882-.364-1.131-.607-.247-.24-.369-.538-.37-.918.001-.39.152-.723.466-1.018.311-.29.714-.436 1.226-.437.477 0 .853.119 1.142.349.298.237.484.491.57.761l.092-.028-.037-.09-.683.284.038.09.094-.025c-.056-.209-.191-.397-.395-.563-.211-.172-.486-.257-.806-.257-.304 0-.574.087-.794.261-.223.173-.344.407-.342.673-.001.246.111.463.317.625.201.159.486.297.855.418.285.092.522.18.71.265.185.083.374.195.567.335.186.135.322.3.417.5.093.199.141.431.141.702 0 .269-.055.503-.164.71-.11.21-.253.372-.432.494-.185.125-.381.219-.595.284-.213.065-.431.097-.654.097v.194c.242 0 .479-.035.71-.106.232-.07.448-.174.647-.308h.001c.206-.14.373-.33.496-.564.124-.238.185-.506.185-.801 0-.293-.052-.556-.16-.785-.107-.229-.268-.422-.478-.574-.202-.146-.403-.266-.601-.355h-.001c-.197-.089-.44-.18-.73-.272h.001c-.356-.117-.621-.248-.795-.386h.001c-.169-.136-.242-.284-.244-.473.002-.21.083-.374.267-.52.186-.147.407-.22.675-.22.288 0 .511.073.684.214h.001-.001c.18.148.286.302.329.461l.029.108.785-.327.081-.034-.027-.084c-.1-.316-.313-.601-.633-.857-.33-.261-.754-.39-1.263-.39-.55-.001-1.009.163-1.359.49-.346.322-.528.715-.527 1.16 0 .421.144.782.428 1.057.281.271.685.486 1.21.652.492.15.85.313 1.062.476.206.16.306.372.308.675-.002.267-.099.461-.306.617-.212.157-.468.237-.775.237-.292-.001-.548-.1-.787-.306-.238-.207-.39-.457-.469-.759l-.027-.108-.785.319-.079.032.02.081c.129.519.409.93.833 1.22.416.284.85.43 1.294.43zM54.208 10.443h1.252c.314 0 .566-.105.755-.316.19-.211.284-.444.284-.698 0-.255-.095-.488-.284-.7-.189-.211-.441-.317-.755-.317h-1.252v2.031zm0 3.073h-.748v-5.82h1.983c.493 0 .92.164 1.28.492.36.328.54.741.54 1.24 0 .498-.18.911-.54 1.24-.36.327-.787.491-1.28.491h-1.235v2.357z"/>
        <path fill="#FFF" d="M54.208 10.443v.097h1.252c.335.002.62-.115.827-.348.203-.225.31-.484.31-.763 0-.28-.107-.54-.31-.765-.207-.232-.492-.35-.827-.349h-1.35v2.225h.098v-.097h.097V8.51h1.155c.293.001.51.094.682.285.177.197.26.404.26.635 0 .23-.083.435-.26.634-.171.19-.39.282-.682.283h-1.252v.097h.097-.097zm0 3.073v-.097h-.651V7.794h1.886c.472 0 .87.154 1.214.466.342.312.509.693.51 1.169-.001.474-.168.854-.51 1.166-.344.313-.742.466-1.214.467h-1.332v2.454h.097v-.097.097h.097v-2.26h1.138c.514 0 .97-.174 1.345-.517.38-.343.574-.79.573-1.31 0-.523-.193-.97-.573-1.312-.376-.344-.83-.517-1.345-.517h-2.08v6.013h.942v-.097h-.097zM59.25 12.277c.43.436.957.654 1.58.654.623 0 1.151-.218 1.582-.654.43-.436.647-.993.647-1.67 0-.678-.217-1.235-.647-1.67-.43-.436-.959-.655-1.581-.655-.624 0-1.15.219-1.581.654-.43.436-.646.993-.646 1.67 0 .678.215 1.235.646 1.671zm3.715.487c-.573.589-1.284.882-2.134.882-.85 0-1.563-.293-2.134-.882-.571-.588-.856-1.307-.856-2.158 0-.85.285-1.57.856-2.157.571-.589 1.283-.882 2.134-.882.846 0 1.555.295 2.13.886.574.59.86 1.308.86 2.153 0 .85-.285 1.57-.856 2.158z"/>
        <path fill="#FFF" d="M59.25 12.277l-.069.068c.446.454 1.004.684 1.65.683.646 0 1.203-.229 1.65-.683.449-.454.676-1.04.675-1.739 0-.697-.226-1.284-.675-1.738h-.002.002c-.447-.454-1.004-.684-1.65-.683-.646 0-1.204.23-1.65.683l-.004.003.004-.003c-.449.454-.675 1.04-.674 1.738 0 .698.225 1.285.674 1.74l.069-.069.069-.069c-.411-.418-.617-.944-.618-1.602.001-.656.207-1.183.618-1.602.415-.418.91-.624 1.512-.625.6.001 1.097.207 1.51.625.414.419.62.946.62 1.602 0 .658-.206 1.184-.62 1.602-.413.42-.91.625-1.51.626-.601-.001-1.097-.207-1.512-.626l-.07.07zm3.784.555l-.14-.136c-.555.57-1.235.852-2.063.853-.828-.001-1.51-.282-2.064-.853-.555-.571-.828-1.26-.83-2.09.002-.828.275-1.518.83-2.089.555-.57 1.236-.852 2.064-.853.823 0 1.501.284 2.06.857.558.574.833 1.262.834 2.085-.001.83-.276 1.519-.83 2.09l.14.136c.587-.604.885-1.353.884-2.226 0-.867-.298-1.614-.889-2.22-.591-.609-1.331-.917-2.2-.916-.872-.001-1.615.305-2.202.911-.59.605-.885 1.353-.884 2.225-.001.873.295 1.622.884 2.226l.002.003-.002-.003c.587.606 1.33.912 2.203.91.873.002 1.615-.304 2.203-.91zM64.871 13.516L64.871 7.697 65.781 7.697 68.609 12.224 68.641 12.224 68.609 11.103 68.609 7.697 69.358 7.697 69.358 13.516 68.577 13.516 65.618 8.77 65.586 8.77 65.618 9.891 65.618 13.516z"/>
        <path fill="#FFF" d="M64.871 13.516L64.968 13.516 64.968 7.794 65.728 7.794 68.556 12.321 68.741 12.321 68.706 11.101 68.706 7.794 69.261 7.794 69.261 13.419 68.631 13.419 65.672 8.673 65.486 8.673 65.521 9.893 65.521 13.419 64.871 13.419 64.871 13.516 64.968 13.516 64.871 13.516 64.871 13.613 65.715 13.613 65.715 9.89 65.683 8.767 65.586 8.77 65.586 8.867 65.618 8.867 65.618 8.77 65.536 8.822 68.524 13.613 69.455 13.613 69.455 7.6 68.512 7.6 68.512 11.104 68.544 12.227 68.641 12.224 68.641 12.127 68.609 12.127 68.609 12.224 68.692 12.173 65.835 7.6 64.774 7.6 64.774 13.613 64.871 13.613zM70.691 13.516L71.437 13.516 71.437 7.697 70.691 7.697z"/>
        <path fill="#FFF" d="M70.691 13.516L70.787 13.516 70.787 7.794 71.34 7.794 71.34 13.419 70.691 13.419 70.691 13.516 70.787 13.516 70.691 13.516 70.691 13.613 71.534 13.613 71.534 7.6 70.594 7.6 70.594 13.613 70.691 13.613zM73.518 12.801h1.504c.286 0 .52-.1.698-.3.18-.2.269-.42.269-.66 0-.238-.092-.455-.277-.653-.184-.198-.425-.298-.724-.298h-1.47v1.911zm0-2.609h1.357c.282 0 .509-.093.678-.28.171-.187.256-.392.256-.614 0-.222-.082-.426-.248-.61-.165-.184-.382-.276-.653-.276h-1.39v1.78zm-.748 3.324v-5.82h2.105c.455 0 .85.152 1.183.452.333.301.5.678.5 1.133 0 .277-.073.521-.216.733-.144.211-.335.37-.573.479v.032c.287.098.523.265.708.504.183.239.276.515.276.83 0 .476-.175.871-.525 1.185-.35.315-.762.472-1.24.472H72.77z"/>
        <path fill="#FFF" d="M73.518 12.801v.097h1.504c.308 0 .575-.113.771-.334.192-.213.293-.46.293-.722 0-.264-.105-.51-.303-.72-.201-.218-.475-.33-.795-.329h-1.567v2.105h.097v-.097h.097v-1.814h1.373c.277.002.487.09.653.267.171.184.25.375.25.588 0 .214-.077.407-.243.593-.162.18-.362.268-.626.269h-1.504v.097h.097-.097zm0-2.609v.097h1.357c.303.001.562-.104.75-.312.184-.2.282-.43.281-.68.001-.246-.094-.475-.273-.673-.181-.205-.433-.31-.725-.309H73.42v1.974h.097v-.097h.097V8.509h1.293c.249.001.433.08.581.245.153.17.223.347.223.544 0 .197-.072.375-.23.548-.153.167-.346.247-.607.249h-1.357v.097h.097-.097zm-.748 3.324h.097V7.794h2.008c.434 0 .8.141 1.118.426.314.285.466.63.468 1.061 0 .26-.067.482-.2.677v.001c-.132.197-.309.344-.532.445l-.057.027v.164l.066.022c.27.092.488.247.662.471.17.223.255.475.256.77-.002.453-.162.816-.493 1.115-.333.298-.718.446-1.175.446H72.77v.097h.097-.097v.097h2.218c.499 0 .94-.167 1.305-.497.369-.329.558-.757.557-1.258 0-.332-.1-.633-.297-.888-.196-.253-.449-.434-.753-.536l-.031.09h.097v-.031h-.097l.04.088c.254-.114.46-.287.613-.513.156-.228.233-.493.233-.787.001-.478-.18-.888-.532-1.205l-.002-.002.002.002c-.35-.315-.771-.476-1.248-.476h-2.202v6.013h.097v-.097zM77.761 13.516L77.761 7.697 78.508 7.697 78.508 12.801 81.027 12.801 81.027 13.516z"/>
        <path fill="#FFF" d="M77.761 13.516L77.858 13.516 77.858 7.794 78.411 7.794 78.411 12.898 80.93 12.898 80.93 13.419 77.761 13.419 77.761 13.516 77.858 13.516 77.761 13.516 77.761 13.613 81.124 13.613 81.124 12.704 78.605 12.704 78.605 7.6 77.664 7.6 77.664 13.613 77.761 13.613zM85.369 8.412L82.718 8.412 82.718 10.257 85.108 10.257 85.108 10.956 82.718 10.956 82.718 12.801 85.369 12.801 85.369 13.516 81.971 13.516 81.971 7.697 85.369 7.697z"/>
        <path fill="#FFF" d="M85.369 8.412L85.369 8.315 82.621 8.315 82.621 10.354 85.011 10.354 85.011 10.859 82.621 10.859 82.621 12.898 85.272 12.898 85.272 13.419 82.068 13.419 82.068 7.794 85.272 7.794 85.272 8.412 85.369 8.412 85.369 8.315 85.369 8.412 85.465 8.412 85.465 7.6 81.874 7.6 81.874 13.613 85.465 13.613 85.465 12.704 82.815 12.704 82.815 11.053 85.205 11.053 85.205 10.16 82.815 10.16 82.815 8.509 85.465 8.509 85.465 8.412zM91.887 8.412L89.236 8.412 89.236 10.257 91.626 10.257 91.626 10.956 89.236 10.956 89.236 12.801 91.887 12.801 91.887 13.516 88.49 13.516 88.49 7.697 91.887 7.697z"/>
        <path fill="#FFF" d="M91.887 8.412L91.887 8.315 89.139 8.315 89.139 10.354 91.529 10.354 91.529 10.859 89.139 10.859 89.139 12.898 91.79 12.898 91.79 13.419 88.587 13.419 88.587 7.794 91.79 7.794 91.79 8.412 91.887 8.412 91.887 8.315 91.887 8.412 91.984 8.412 91.984 7.6 88.393 7.6 88.393 13.613 91.984 13.613 91.984 12.704 89.333 12.704 89.333 11.053 91.723 11.053 91.723 10.16 89.333 10.16 89.333 8.509 91.984 8.509 91.984 8.412zM93.057 13.516L93.057 7.697 93.966 7.697 96.795 12.224 96.827 12.224 96.795 11.103 96.795 7.697 97.543 7.697 97.543 13.516 96.763 13.516 93.803 8.77 93.771 8.77 93.803 9.891 93.803 13.516z"/>
        <path fill="#FFF" d="M93.057 13.516L93.154 13.516 93.154 7.794 93.913 7.794 96.741 12.321 96.926 12.321 96.892 11.101 96.892 7.794 97.446 7.794 97.446 13.419 96.816 13.419 93.858 8.673 93.672 8.673 93.706 9.893 93.706 13.419 93.057 13.419 93.057 13.516 93.154 13.516 93.057 13.516 93.057 13.613 93.9 13.613 93.9 9.89 93.868 8.767 93.771 8.77 93.771 8.867 93.803 8.867 93.803 8.77 93.721 8.822 96.709 13.613 97.64 13.613 97.64 7.6 96.698 7.6 96.698 11.104 96.73 12.227 96.827 12.224 96.827 12.127 96.795 12.127 96.795 12.224 96.877 12.173 94.021 7.6 92.96 7.6 92.96 13.613 93.057 13.613z"/>
    </g>
</svg>
