<svg xmlns="http://www.w3.org/2000/svg" width="32" height="30" viewBox="0 0 32 30">
    <path fill="#681CAD" fill-rule="evenodd" d="M25.015 0c.825 0 1.87.567 2.33 1.261l4.334 6.548c.462.696.419 1.795-.088 2.444L16.923 29.05c-.51.653-1.34.65-1.846 0L.409 10.253C-.1 9.6-.138 8.503.321 7.81L4.656 1.26C5.117.565 6.166 0 6.986 0h18.029zm-5.073 10.581h-7.844l3.915 11.861 3.929-11.861zm-11.029 0H4.552l7.619 9.835-3.258-9.835zm18.609 0h-4.415l-3.254 9.823 7.669-9.823zM7.106 3.033c-.013.007-1.863 2.805-3.001 4.527l4.944-.002 2.317-4.533c-2.453.002-4.252.004-4.26.008zm10.148-.01h-2.491L12.43 7.558h7.145l-2.321-4.535zm7.663 0h-4.28l2.333 4.535h4.938l-2.99-4.535z"/>
</svg>
