<svg xmlns="http://www.w3.org/2000/svg" width="27" height="20" viewBox="0 0 27 20">
    <path fill="#FFF" fill-rule="evenodd" d="M13.5 0c3.682 0 7.06 1.412 9.722 3.747C25.477 5.725 27 8.227 27 10c0 1.773-1.526 4.274-3.783 6.253C20.553 18.588 17.177 20 13.5 20c-3.677 0-7.053-1.414-9.718-3.752C1.527 14.268 0 11.768 0 10c0-1.767 1.524-4.269 3.778-6.247C6.44 1.413 9.818 0 13.5 0zm0 2.5c-3.061 0-5.881 1.18-8.12 3.146C3.615 7.196 2.455 9.1 2.455 10c0 .898 1.162 2.803 2.93 4.353C7.624 16.32 10.443 17.5 13.5 17.5c3.057 0 5.877-1.18 8.116-3.142 1.768-1.55 2.93-3.454 2.93-4.358 0-.906-1.16-2.809-2.926-4.358C19.383 3.679 16.562 2.5 13.5 2.5zm0 2.5c2.711 0 4.91 2.239 4.91 5s-2.199 5-4.91 5c-2.711 0-4.91-2.239-4.91-5s2.199-5 4.91-5zm0 2.5c-1.356 0-2.455 1.12-2.455 2.5s1.1 2.5 2.455 2.5c1.356 0 2.455-1.12 2.455-2.5h-.614c-1.017 0-1.841-.84-1.841-1.875V7.5z"/>
</svg>
