<svg xmlns="http://www.w3.org/2000/svg" width="23" height="23" viewBox="0 0 23 23">
    <path fill="#FFF" fill-rule="evenodd" d="M12.65 15.525h.575c.635 0 1.15.51 1.15 1.15 0 .635-.51 1.15-1.15 1.15h-3.45c-.635 0-1.15-.51-1.15-1.15 0-.635.51-1.15 1.15-1.15h.575v-3.45h-.572c-.637 0-1.153-.51-1.153-1.15 0-.635.51-1.15 1.153-1.15h1.719c.32 0 .607.128.815.336.21.208.338.495.338.814v4.6zM11.5 23C5.149 23 0 17.851 0 11.5S5.149 0 11.5 0 23 5.149 23 11.5 17.851 23 11.5 23zm0-2.3c5.081 0 9.2-4.119 9.2-9.2 0-5.081-4.119-9.2-9.2-9.2-5.081 0-9.2 4.119-9.2 9.2 0 5.081 4.119 9.2 9.2 9.2zm0-12.075c-.953 0-1.725-.772-1.725-1.725 0-.953.772-1.725 1.725-1.725.953 0 1.725.772 1.725 1.725 0 .953-.772 1.725-1.725 1.725z"/>
</svg>
