<svg xmlns="http://www.w3.org/2000/svg" width="38" height="29" viewBox="0 0 38 29">
    <path fill="#FFF" fill-rule="evenodd" d="M11.048 22.206c.313.338.845.826 1.385 1.181 1.604 1.056 3.747 1.7 6.538 1.7 2.791 0 4.932-.644 6.531-1.699.538-.355 1.179-.865 1.38-1.18v-6.585l-5.808 2.742c-1.22.575-2.999.574-4.214-.002l-5.812-2.754v6.597zM7.88 14.108L.9 10.801C-.301 10.231-.3 8.534.903 7.966L16.855.433c1.218-.576 3-.577 4.217-.005l16.023 7.537c1.206.567 1.207 2.268.002 2.837l-.713.337v7.483c.486.431.792 1.058.792 1.756 0 1.301-1.064 2.356-2.376 2.356-1.311 0-2.375-1.055-2.375-2.356 0-.698.306-1.325.792-1.756v-5.989l-3.167 1.495v8.58c.005.287-.069.578-.23.84-.125.206-.344.5-.666.853-.505.554-1.135 1.1-1.898 1.603-2.118 1.397-4.868 2.225-8.285 2.225-3.416 0-6.168-.828-8.29-2.224-.763-.504-1.394-1.049-1.9-1.602-.324-.352-.543-.647-.669-.851-.162-.264-.236-.556-.231-.843v-8.6zm10.335-10.84L5.254 9.384l12.972 6.146c.352.167 1.13.168 1.487 0L32.718 9.39 19.715 3.266c-.357-.167-1.14-.167-1.499.003z"/>
</svg>
