<svg xmlns="http://www.w3.org/2000/svg" width="28" height="28" viewBox="0 0 28 28">
    <path fill="#FFF" fill-rule="evenodd" d="M14 28C6.268 28 0 21.732 0 14S6.268 0 14 0s14 6.268 14 14-6.268 14-14 14zm0-2.8c6.186 0 11.2-5.014 11.2-11.2 0-6.186-5.014-11.2-11.2-11.2C7.814 2.8 2.8 7.814 2.8 14c0 6.186 5.014 11.2 11.2 11.2zm0-16.8c-1.546 0-2.8 1.254-2.8 2.8 0 .773-.627 1.4-1.4 1.4-.773 0-1.4-.627-1.4-1.4 0-3.093 2.507-5.6 5.6-5.6 3.124 0 5.609 2.247 5.609 5.317 0 1.678-.59 2.705-1.847 3.788-.129.11-1.584 1.292-1.639 1.336-.583.466-.705.677-.705 1.374 0 .773-.627 1.4-1.4 1.4-.773 0-1.4-.627-1.4-1.4 0-1.638.56-2.603 1.757-3.561-.047.037 1.456-1.181 1.56-1.272.693-.596.874-.91.874-1.665C16.809 9.46 15.637 8.4 14 8.4zm0 14c-.773 0-1.4-.627-1.4-1.4 0-.773.627-1.4 1.4-1.4.773 0 1.4.627 1.4 1.4 0 .773-.627 1.4-1.4 1.4z"/>
</svg>
