<svg xmlns="http://www.w3.org/2000/svg" width="28" height="32" viewBox="0 0 28 32">
    <path fill="#681CAD" fill-rule="evenodd" d="M0 29.556V3.11C0 1.39 1.39 0 3.112 0h21.776C26.607 0 28 1.389 28 3.11v26.446c0 1.156-1.217 1.908-2.251 1.39l-2.398-1.198-2.433 1.199c-.438.219-.954.219-1.391 0l-2.412-1.206-2.42 1.206c-.437.219-.953.219-1.39 0l-2.411-1.205-2.418 1.205c-.438.219-.954.219-1.392 0l-2.413-1.206-2.42 1.206C1.217 31.464 0 30.712 0 29.556zM24.888 3.11H3.11v23.925l.86-.427c.438-.22.953-.22 1.391 0l2.431 1.213 2.4-1.213c.438-.22.954-.22 1.392 0L14 27.819l2.415-1.21c.438-.22.954-.22 1.392 0l2.439 1.218 2.392-1.218c.438-.22.953-.22 1.391 0l.868.434-.01-23.932zM14 20.222c0-.859.69-1.555 1.555-1.555h4.668c.858 0 1.555.69 1.555 1.555 0 .86-.69 1.556-1.555 1.556h-4.668c-.859 0-1.555-.69-1.555-1.556zM6.222 14c0-.86.699-1.556 1.549-1.556h12.458c.856 0 1.549.69 1.549 1.556 0 .86-.699 1.556-1.549 1.556H7.771c-.856 0-1.549-.69-1.549-1.556zm0-6.222c0-.86.699-1.556 1.549-1.556h12.458c.856 0 1.549.69 1.549 1.556 0 .859-.699 1.555-1.549 1.555H7.771c-.856 0-1.549-.69-1.549-1.555z"/>
</svg>
