<svg xmlns="http://www.w3.org/2000/svg" width="35" height="27" viewBox="0 0 35 27">
    <path fill="#681CAD" fill-rule="evenodd" d="M5.826.422S9.844 0 17.5 0s11.682.422 11.682.422c2.408.179 4.724 2.286 5.112 4.723 0 0 .706 2.681.706 8.272 0 5.59-.708 8.286-.708 8.286-.414 2.422-2.697 4.536-5.114 4.7 0 0-4.386.43-11.678.43-7.292 0-11.687-.43-11.687-.43-2.405-.174-4.719-2.278-5.107-4.714 0 0-.706-2.682-.706-8.272S.708 5.13.708 5.13C1.122 2.708 3.413.59 5.826.422zm-2.58 7.145c-.205 1.586-.33 3.534-.33 5.85s.125 4.26.329 5.843c.115.896.34 1.95.34 1.95.167 1.049 1.355 2.14 2.506 2.225.118.012 2.126.16 2.984.206 2.463.132 5.287.21 8.425.21 3.138 0 5.96-.078 8.421-.21.856-.046 2.862-.194 2.98-.205 1.15-.08 2.334-1.17 2.518-2.247 0 0 .22-1.022.335-1.922.205-1.587.33-3.535.33-5.85 0-2.316-.125-4.261-.329-5.843-.115-.897-.34-1.95-.34-1.95-.167-1.05-1.36-2.148-2.443-2.228-.19-.019-2.078-.163-2.913-.208-2.404-.129-5.26-.207-8.559-.207-3.298 0-6.154.078-8.555.207-.834.045-2.922.208-2.922.208-1.067.074-2.258 1.172-2.442 2.248 0 0-.22 1.022-.335 1.923zm10.619 2.36c.002-.828.577-1.172 1.275-.775l6.204 3.532c.702.4.696 1.053-.004 1.454l-6.22 3.564c-.705.404-1.274.06-1.272-.767l.017-7.009z"/>
</svg>
