<svg xmlns="http://www.w3.org/2000/svg" width="24" height="24" viewBox="0 0 24 24">
    <path fill="#681CAD" fill-rule="evenodd" d="M10.852 6.619l-1.22 1.22c-.676.674-.674 1.77.003 2.447l4.07 4.066c.681.682 1.774.679 2.45.004l1.22-1.22c.452-.451 1.182-.453 1.634-.001l4.483 4.479c.676.675.68 1.767-.003 2.449l-2.444 2.442c-1.575 1.574-4.434 1.987-6.346.844 0 0-3.063-1.287-7.893-6.113C1.976 12.411.64 9.294.64 9.294c-1.114-1.929-.736-4.772.835-6.341L3.92.51c.677-.677 1.77-.682 2.45-.003l4.483 4.48c.451.45.452 1.179 0 1.632zM3.106 4.582c-.834.834-.976 2.502-.468 3.56 0 0 .814 1.477 1.183 2.02 1.09 1.607 2.606 3.436 4.616 5.445 2.01 2.008 3.83 3.513 5.418 4.587.537.362 2.028 1.178 2.028 1.178.965.505 2.682.352 3.53-.496l2.042-2.04-3.262-3.258-.408.408c-1.578 1.576-4.13 1.575-5.711-.004l-4.07-4.066C6.427 10.34 6.424 7.785 8 6.209l.408-.407-3.261-3.259-2.041 2.039z"/>
</svg>
