<svg xmlns="http://www.w3.org/2000/svg" width="27" height="23" viewBox="0 0 27 23">
    <path fill="#681CAD" fill-rule="evenodd" d="M13.502 19.092c1.054 0 1.909.855 1.909 1.91 0 1.054-.855 1.908-1.91 1.908-1.054 0-1.908-.854-1.908-1.909 0-1.054.854-1.91 1.909-1.91zm0-6.364c1.98 0 3.866.65 5.407 1.828.559.427.665 1.226.238 1.784-.427.559-1.226.665-1.784.238-1.101-.842-2.444-1.304-3.861-1.304-1.401 0-2.73.452-3.825 1.276-.561.423-1.36.31-1.782-.25-.423-.562-.31-1.36.25-1.783 1.533-1.154 3.398-1.79 5.357-1.79zm0-6.364c3.361 0 6.56 1.09 9.189 3.072.56.424.673 1.222.25 1.783-.424.561-1.222.673-1.783.25-2.19-1.652-4.853-2.56-7.656-2.56-2.796 0-5.452.903-7.639 2.547-.562.422-1.36.309-1.782-.253-.422-.562-.31-1.36.253-1.782 2.624-1.973 5.815-3.057 9.168-3.057zm0-6.364c4.75 0 9.272 1.536 12.99 4.332.562.422.675 1.22.253 1.782-.423.562-1.22.675-1.783.253-3.28-2.467-7.266-3.821-11.46-3.821-4.196 0-8.182 1.355-11.464 3.823-.562.423-1.36.31-1.782-.252-.423-.562-.31-1.36.252-1.782C4.227 1.538 8.75 0 13.502 0z"/>
</svg>
