<svg xmlns="http://www.w3.org/2000/svg" width="19" height="27" viewBox="0 0 19 27">
    <path fill="#681CAD" fill-rule="evenodd" d="M11.507 19c.01-.203.03-.483.062-.664.11-.61.186-.942.353-1.378.287-.752.744-1.399 1.424-1.888 1.748-1.257 2.804-3.282 2.804-5.49 0-3.717-2.977-6.73-6.65-6.73-3.673 0-6.65 3.013-6.65 6.73 0 2.312.996 4.247 2.752 5.46.695.48 1.16 1.126 1.451 1.88.167.432.245.765.354 1.365.037.204.066.504.084.715h.679v-6.722l-2.126-1.625c-.586-.448-.702-1.292-.259-1.885.443-.593 1.277-.71 1.863-.263l1.859 1.422 1.862-1.422c.586-.448 1.42-.33 1.863.263.443.593.326 1.437-.26 1.885l-2.142 1.638V19h.677zM6.11 25.27c-.752 0-1.361-.59-1.361-1.33v-5.254c-.144-.735-.217-1.42-.757-1.782C1.486 15.228 0 12.508 0 9.31 0 4.168 4.253 0 9.5 0S19 4.168 19 9.31c0 3.134-1.58 5.907-4.003 7.594-.527.367-.617 1.017-.749 1.716l.002 5.32c0 .735-.609 1.33-1.361 1.33h-1.47c-.279.775-1.033 1.33-1.919 1.33-.886 0-1.64-.555-1.92-1.33H6.111zM7.6 21.85v.95h3.8v-.95H7.6z"/>
</svg>
