<svg xmlns="http://www.w3.org/2000/svg" width="98" height="27" viewBox="0 0 98 27">
    <g fill="none">
        <path fill="#691BB0" d="M13.218 4.298c.69 0 1.356.248 1.876.697.564.442.89 1.117.885 1.83.004.692-.305 1.349-.844 1.79-.526.466-1.21.718-1.915.707h-2.517v14.801c.003.688-.296 1.343-.819 1.796-1.085.974-2.74.974-3.825 0-.521-.454-.819-1.109-.817-1.796V9.322H2.725c-.712.018-1.403-.24-1.927-.717-.514-.45-.805-1.1-.798-1.78.002-.326.082-.646.232-.935.305-.59.797-1.065 1.4-1.352.343-.16.719-.243 1.098-.24h10.488zm67.617.795c1.477 0 2.685 1.166 2.722 2.629v.017c.728-.393 1.502-.697 2.304-.904.842-.22 1.709-.33 2.579-.327 1.315-.011 2.618.249 3.825.764 1.152.492 2.186 1.218 3.035 2.131.866.942 1.541 2.04 1.987 3.235.487 1.311.729 2.7.712 4.097v7.21c.003 1.488-1.211 2.696-2.713 2.7l-.166-.004c-1.425-.085-2.555-1.257-2.555-2.69v-7.21c.001-.598-.08-1.192-.24-1.768-.151-.557-.405-1.082-.747-1.549-.342-.46-.781-.84-1.288-1.111-.568-.291-1.2-.435-1.84-.42-.657-.005-1.308.126-1.911.384-.578.246-1.103.599-1.548 1.038-.447.445-.803.97-1.049 1.548-.255.591-.386 1.229-.385 1.872v7.21c-.037 1.463-1.245 2.63-2.722 2.63-1.478 0-2.686-1.167-2.723-2.63V7.723c.037-1.463 1.245-2.629 2.723-2.629zm-8.441 1.493l.179.006c1.3.08 2.39 1.033 2.618 2.32.028.16.042.323.042.486v14.415c-.002 1.552-1.272 2.809-2.839 2.81l-.173-.005c-1.26-.078-2.326-.973-2.6-2.207-.045-.198-.068-.4-.067-.603V15.69c2.598-.312 4.413-1.804 4.413-4.227h-4.413V9.398c0-1.553 1.271-2.812 2.84-2.812zm-52.971 1.19c2.476-1.022 5.261-1.022 7.737 0 2.374.989 4.262 2.859 5.26 5.21 1.03 2.45 1.03 5.208 0 7.66-.998 2.35-2.886 4.22-5.26 5.208-2.476 1.022-5.261 1.022-7.737 0-2.374-.989-4.262-2.858-5.261-5.209-1.032-2.45-1.032-5.209 0-7.66.999-2.35 2.887-4.22 5.261-5.209zm44.41-1.19l.205.008c.679.048 1.32.337 1.803.816.533.527.832 1.243.831 1.988v.38H62.31c0 2.424 1.764 3.915 4.362 4.227v9.803c0 1.552-1.27 2.81-2.838 2.81l-.173-.005c-1.487-.088-2.666-1.31-2.666-2.805V9.398c0-.148.012-.297.036-.444.22-1.364 1.408-2.368 2.803-2.368zm-29.343 8.6l.011.255v.089c.009.05.017.11.03.17.003.02.011.041.011.061.016.067.033.133.052.198.012.036.022.07.036.105l.02.06c.193.51.538.95.99 1.261l4.46 2.727v3.715c0 1.534-1.255 2.778-2.805 2.778-1.55 0-2.806-1.244-2.806-2.778v-8.64zm23.624-6.302v14.88c0 1.534-1.257 2.778-2.806 2.778-1.55 0-2.806-1.244-2.806-2.778v-8.782l4.77-4.426c.122-.112.232-.235.331-.366l.034-.05c.047-.065.091-.132.131-.202.188-.324.306-.682.346-1.054zm-32.384 3.79c-2.106-1.214-4.795-.693-6.283 1.218-1.489 1.91-1.315 4.618.406 6.326 1.906 1.864 4.971 1.864 6.877 0 .441-.44.791-.96 1.031-1.532.944-2.225.075-4.797-2.031-6.011z"/>
        <path fill="#22BBAF" d="M56.08 6.187c.952.353 1.623 1.213 1.733 2.22.019.19.017.38-.005.568-.067.638-.364 1.231-.835 1.669l-4.728 4.417-6.433 6.566c-.925.865-2.332.966-3.372.241l-1.845-1.286-.624-.386-.026-.015-4.41-2.719c-.572-.396-.967-1-1.1-1.682-.012-.06-.02-.119-.027-.17l-.017-.177-.005-.178v-.178c0-.06.009-.092.015-.138.007-.046.016-.117.028-.17.175-.887.787-1.625 1.628-1.964.84-.338 1.795-.23 2.539.287l1.363.967.027.02 3.743 2.163 8.521-8.51 1.062-.991c.743-.692 1.814-.906 2.767-.554zM63.475 0c1.562 0 2.828 1.262 2.828 2.819s-1.266 2.819-2.828 2.819c-1.561 0-2.827-1.262-2.827-2.82C60.649 1.263 61.915 0 63.476 0zm8.486 0c1.562 0 2.827 1.262 2.827 2.819s-1.265 2.819-2.827 2.819c-1.561 0-2.827-1.262-2.827-2.82C69.135 1.263 70.4 0 71.962 0z"/>
    </g>
</svg>
