<svg xmlns="http://www.w3.org/2000/svg" width="38" height="31" viewBox="0 0 38 31">
    <path fill="#00857D" fill-rule="evenodd" d="M2.527 7.635c-.204-.73-.682-1.288-1.603-1.693-.795-.35-1.144-1.253-.78-2.016.365-.763 1.305-1.098 2.1-.748 1.792.79 3.112 2.222 3.47 4.232.93-.496 1.944-.867 3.015-1.09C9.005 2.787 12.08 0 15.834 0c3.424 0 6.284 2.319 6.969 5.41l4.183-2.496c1.427-.852 3.097.03 3.097 1.647 0 0 0 3.154-.017 3.415 2.023 1.35 3.528 3.323 4.264 5.704h1.293c1.305 0 2.377 1.017 2.377 2.277v6.086c0 1.253-1.067 2.277-2.377 2.277 0 0-3.956 0-4.12-.008-.692.63-1.42 1.133-1.42 1.133v2.673c0 1.253-1.06 2.282-2.372 2.282h-4.755c-1.307 0-2.372-1.024-2.372-2.282v-.758H14.25v.758c0 1.253-1.06 2.282-2.372 2.282H7.123c-1.307 0-2.373-1.024-2.373-2.282 0 0-.016-2.419-.016-2.675C1.806 23.477 0 20.249 0 16.72 0 14.263.868 12 2.325 10.2c.01-.03.535-1.373.202-2.565zM21.76 10.64h.415c.865 0 1.576.68 1.576 1.52 0 .845-.705 1.52-1.576 1.52H9.493c-.865 0-1.576-.68-1.576-1.52 0-.845.706-1.52 1.576-1.52h.415c-.282-.406-.521-.842-.71-1.303-3.462.812-6.031 3.809-6.031 7.383 0 5.082 4.75 7.023 4.75 7.023v3.617h3.167v-3.04H23.75l-.024 3.04 3.19.008v-3.625s1.984-.931 3.207-2.463c1.884 0 4.71.023 4.71.023V16.72H31.78c-.276-5.274-4.862-7.023-4.862-7.023V6.543L22.584 9.12c-.23.541-.498 1.051-.825 1.52zm5.158 6.08c-.875 0-1.584-.68-1.584-1.52s.71-1.52 1.584-1.52c.874 0 1.583.68 1.583 1.52s-.709 1.52-1.583 1.52zm-11.083-6.08c2.186 0 3.958-1.701 3.958-3.8 0-2.099-1.772-3.8-3.958-3.8-2.187 0-3.959 1.701-3.959 3.8 0 2.099 1.772 3.8 3.959 3.8z"/>
</svg>
