<svg xmlns="http://www.w3.org/2000/svg" width="30" height="30" viewBox="0 0 30 30">
    <path fill="#00857D" fill-rule="evenodd" d="M10.127 12.995c0 .897-.721 1.624-1.625 1.624-.897 0-1.624-.72-1.624-1.624H5.254v12.994h6.497V17.872c0-.9.72-1.629 1.623-1.629h3.251c.897 0 1.623.729 1.623 1.63v8.116h6.498V12.995H23.12c0 .897-.72 1.624-1.624 1.624-.897 0-1.624-.72-1.624-1.624h-3.25c0 .897-.72 1.624-1.623 1.624-.897 0-1.625-.72-1.625-1.624h-3.248zm0-3.249h3.248V8.121c0-.897.721-1.624 1.625-1.624.897 0 1.624.721 1.624 1.624v1.625h3.249V8.121c0-.897.72-1.624 1.624-1.624.897 0 1.624.721 1.624 1.624v1.625h2.073c1.385 0 1.84-.624 1.413-1.951l-1.46-4.546H4.805L3.393 7.795c-.426 1.325.03 1.951 1.413 1.951h2.072V8.121c0-.897.721-1.624 1.624-1.624.897 0 1.625.721 1.625 1.624v1.625zm17.867 2.536V27.61c0 .899-.722 1.628-1.625 1.628H3.63c-.898 0-1.626-.729-1.626-1.628V12.28C.278 11.244-.464 9.18.299 6.803l1.69-5.26C2.261.69 3.204 0 4.106 0h21.786c.897 0 1.848.699 2.118 1.542l1.69 5.26c.763 2.378.022 4.442-1.707 5.48z"/>
</svg>
