<svg xmlns="http://www.w3.org/2000/svg" width="21" height="30" viewBox="0 0 21 30">
    <path fill="#FFF" fill-rule="evenodd" d="M12.718 21c.012-.224.033-.534.069-.734.121-.673.205-1.041.39-1.523.317-.83.822-1.546 1.574-2.087 1.932-1.39 3.099-3.627 3.099-6.068 0-4.108-3.29-7.438-7.35-7.438s-7.35 3.33-7.35 7.438c0 2.556 1.1 4.695 3.042 6.035.768.53 1.281 1.245 1.604 2.078.184.477.27.845.39 1.51.042.225.073.556.093.789h.751v-7.43l-2.35-1.796c-.647-.495-.775-1.428-.286-2.083.49-.656 1.411-.786 2.059-.29l2.054 1.571 2.059-1.571c.647-.496 1.57-.366 2.059.29.489.655.36 1.588-.287 2.083l-2.368 1.81V21h.748zm-5.964 6.93c-.83 0-1.504-.652-1.504-1.47v-5.807c-.16-.812-.24-1.57-.837-1.97C1.643 16.832 0 13.826 0 10.29 0 4.607 4.701 0 10.5 0S21 4.607 21 10.29c0 3.464-1.747 6.529-4.424 8.394-.583.405-.683 1.124-.828 1.896l.002 5.88c0 .812-.673 1.47-1.504 1.47h-1.624c-.309.856-1.142 1.47-2.122 1.47s-1.813-.614-2.122-1.47H6.754zM8.4 24.15v1.05h4.2v-1.05H8.4z"/>
</svg>
