<svg xmlns="http://www.w3.org/2000/svg" width="26" height="28" viewBox="0 0 26 28">
    <path fill="#FFF" fill-rule="evenodd" d="M9.553 18.763l-.295.511c-.38.659-1.218.887-1.882.504-.66-.381-.884-1.226-.505-1.882l.234-.406c-.364-.261-.708-.547-1.031-.855L3.81 20.554l1.7-.11c.936-.06 1.905.5 2.32 1.34l.77 1.557 2.401-4.197c-.497-.09-.981-.218-1.449-.38zM3.081 9.65C3.08 4.32 7.4 0 12.73 0c5.33 0 9.65 4.32 9.65 9.65 0 1.66-.42 3.222-1.159 4.587l4.07 7.05c.593 1.027-.18 2.25-1.357 2.174l-3.885-.25-1.747 3.501c-.508 1.028-1.955 1.139-2.56.09l-2.994-5.186-2.994 5.185c-.606 1.05-2.053.94-2.56-.089L5.46 23.207l-3.899.254c-1.176.076-1.95-1.147-1.357-2.174l4.052-7.018c-.75-1.372-1.175-2.946-1.175-4.62zM16.91 23.311l.754-1.528c.415-.84 1.385-1.4 2.32-1.34l1.694.11-2.27-3.939c-.33.316-.68.609-1.052.876l.234.406c.38.656.154 1.501-.505 1.882-.664.383-1.502.155-1.882-.504l-.295-.51c-.455.158-.925.283-1.408.373l2.41 4.174zm-4.18-6.77c3.807 0 6.892-3.085 6.892-6.892 0-3.806-3.085-6.892-6.892-6.892-3.807 0-6.892 3.086-6.892 6.892 0 3.807 3.085 6.893 6.892 6.893zm.075-4.135l-2.016 1.06c-.677.356-1.12.032-.991-.72l.385-2.245-1.631-1.59c-.547-.533-.377-1.055.379-1.165l2.253-.327 1.008-2.042c.338-.686.888-.685 1.225 0l1.008 2.042 2.254.327c.756.11.925.633.378 1.166l-1.63 1.59.385 2.244c.129.753-.316 1.075-.992.72l-2.015-1.06z"/>
</svg>
